Coordinates
version=1
nRows=9
nColumns=24
inDegrees=yes

Units are S.I. units (second, meters, Newtons, ...)
Angles are in degrees.

endheader
time	pelvis_tilt	pelvis_list	pelvis_rotation	pelvis_tx	pelvis_ty	pelvis_tz	hip_flexion_r	hip_adduction_r	hip_rotation_r	knee_angle_r	ankle_angle_r	subtalar_angle_r	mtp_angle_r	hip_flexion_l	hip_adduction_l	hip_rotation_l	knee_angle_l	ankle_angle_l	subtalar_angle_l	mtp_angle_l	lumbar_extension	lumbar_bending	lumbar_rotation
      0.46200000	     -1.28866368	      4.93994375	      0.99018172	     -0.78752099	      0.98207897	      0.29018005	     27.38047911	     -3.22563709	     -3.92264976	    -13.05105861	      6.34012888	     -5.44395522	      0.55971421	    -13.70502758	      8.61247211	      1.75617260	     -8.03407136	      9.78551890	     -3.93502582	      0.28118400	     -1.27027298	     -2.61295637	      0.33534059
      0.46616667	     -1.35102567	      4.92616502	      1.05127407	     -0.78145076	      0.98132541	      0.29042656	     27.34242818	     -3.17012570	     -4.05989179	    -13.00166682	      6.18152168	     -5.41687476	      0.66369101	    -13.67980226	      8.55757239	      1.77196384	     -8.67961487	      9.83613598	     -3.86408574	      0.30421368	     -1.13664778	     -2.58327207	      0.28505674
      0.47033333	     -1.42843029	      4.91606257	      1.10492279	     -0.77538360	      0.98055974	      0.29073086	     27.31983171	     -3.10772406	     -4.11601421	    -13.02219187	      6.01831306	     -5.36243255	      0.93372485	    -13.55538245	      8.49056696	      1.60494206	     -9.48291407	      9.93990446	     -3.46606020	      0.39636617	     -0.98935324	     -2.58946725	      0.13388018
      0.47450000	     -1.47512667	      4.88919595	      1.15617213	     -0.76928115	      0.97986614	      0.29100032	     27.26655218	     -3.03457366	     -4.18185846	    -13.12307960	      5.79689396	     -5.38983932	      1.21849716	    -13.45401100	      8.41640482	      1.51878876	    -10.30384094	      9.97965965	     -3.27020076	      0.52780142	     -0.87746041	     -2.55042646	      0.07604411
      0.47866667	     -1.50329306	      4.85807121	      1.18383079	     -0.76315335	      0.97920885	      0.29129152	     27.21056528	     -2.95093752	     -4.20785081	    -13.31731323	      5.48075268	     -5.63953219	      5.25406134	    -13.35180965	      8.34361351	      1.42261927	    -11.15179990	      9.93603395	     -3.15886491	      2.81212178	     -0.79028384	     -2.48973476	      0.08305624
      0.48283333	     -1.55556857	      4.83007474	      1.23737520	     -0.75701370	      0.97854236	      0.29151956	     27.19163125	     -2.89288727	     -4.29028409	    -13.60167492	      5.16736660	     -5.60394193	      5.26508668	    -13.19201183	      8.27835517	      1.41048034	    -12.06791929	      9.87806501	     -3.11248471	      2.83673422	     -0.67013034	     -2.43477900	      0.01902377
      0.48700000	     -1.62646847	      4.81067079	      1.29238153	     -0.75088165	      0.97789383	      0.29178056	     27.18004521	     -2.83470439	     -4.27868103	    -13.91231645	      4.87564454	     -5.65969515	      5.29695950	    -12.94252832	      8.21220760	      1.31910477	    -13.10852698	      9.81993078	     -2.93051909	      2.91553829	     -0.51700441	     -2.41158754	     -0.05949544
      0.49116667	     -1.63729196	      4.75716111	      1.32673775	     -0.74470170	      0.97735128	      0.29204053	     27.12250843	     -2.74452701	     -4.30147471	    -14.31214274	      4.51324850	     -5.77530991	      5.32340457	    -12.75083576	      8.11791918	      1.25071271	    -14.15145482	      9.68955455	     -2.85219539	      3.00016341	     -0.44540860	     -2.31453568	     -0.08479664
      0.49533333	     -1.72091556	      4.73083885	      1.37164212	     -0.73857601	      0.97672945	      0.29232645	     27.12880743	     -2.67098030	     -4.19429108	    -14.71008283	      4.18488382	     -5.96543079	      5.37465784	    -12.39808867	      8.04342591	      1.13344512	    -15.34836508	      9.55018814	     -2.68049554	      3.17175592	     -0.27657025	     -2.28307378	     -0.12068635
